<svg viewBox="0 0 32 32" x="0" y="0" fill="none" xmlns="http://www.w3.org/2000/svg"><g id="Icon_7" xmlns="http://www.w3.org/2000/svg">
<path id="Vector_26" d="M14.6934,3.752c0.05,-0.306 0.22,-0.582 0.45,-0.781c0.24,-0.199 0.55,-0.307 0.86,-0.307c0.31,0 0.61,0.108 0.85,0.307c0.24,0.199 0.4,0.475 0.46,0.781l1.4,7.411c0.1,0.527 0.35,1.011 0.73,1.39c0.38,0.379 0.87,0.636 1.39,0.735l7.41,1.401c0.31,0.058 0.59,0.22 0.79,0.459c0.19,0.24 0.3,0.541 0.3,0.852c0,0.311 -0.11,0.613 -0.3,0.852c-0.2,0.239 -0.48,0.402 -0.79,0.459l-7.41,1.401c-0.52,0.1 -1.01,0.356 -1.39,0.735c-0.38,0.379 -0.63,0.864 -0.73,1.39l-1.4,7.411c-0.06,0.306 -0.22,0.582 -0.46,0.781c-0.24,0.199 -0.54,0.308 -0.85,0.308c-0.31,0 -0.62,-0.109 -0.86,-0.308c-0.23,-0.199 -0.4,-0.475 -0.45,-0.781l-1.41,-7.411c-0.09,-0.526 -0.35,-1.011 -0.73,-1.39c-0.38,-0.379 -0.86,-0.635 -1.39,-0.735l-7.41,-1.401c-0.31,-0.057 -0.58,-0.22 -0.78,-0.459c-0.2,-0.239 -0.31,-0.541 -0.31,-0.852c0,-0.311 0.11,-0.612 0.31,-0.852c0.2,-0.239 0.47,-0.401 0.78,-0.459l7.41,-1.401c0.53,-0.099 1.01,-0.356 1.39,-0.735c0.38,-0.379 0.64,-0.863 0.73,-1.39z" stroke="#99A1AF" stroke-width="2.66667" stroke-linecap="round" stroke-linejoin="round"/>
<path id="Vector_27" d="M26.6634,2.667v5.333" stroke="#99A1AF" stroke-width="2.66667" stroke-linecap="round" stroke-linejoin="round"/>
<path id="Vector_28" d="M29.3334,5.333h-5.33" stroke="#99A1AF" stroke-width="2.66667" stroke-linecap="round" stroke-linejoin="round"/>
<path id="Vector_29" d="M5.3334,29.333c1.47,0 2.67,-1.194 2.67,-2.666c0,-1.473 -1.2,-2.667 -2.67,-2.667c-1.47,0 -2.67,1.194 -2.67,2.667c0,1.472 1.2,2.666 2.67,2.666z" stroke="#99A1AF" stroke-width="2.66667" stroke-linecap="round" stroke-linejoin="round"/>
</g></svg>