<svg viewBox="0 0 22 22" x="0" y="0" fill="none" xmlns="http://www.w3.org/2000/svg"><path id="Vector_58" d="M12.832,15.568c0.207,0.0948 0.439,0.1165 0.66,0.0614c0.22,-0.055 0.415,-0.1836 0.553,-0.3644l0.355,-0.465c0.186,-0.2484 0.428,-0.45 0.706,-0.5889c0.277,-0.1388 0.584,-0.2111 0.894,-0.2111h3c0.53,0 1.039,0.2107 1.414,0.5858c0.375,0.3751 0.586,0.8838 0.586,1.4142v3c0,0.5304 -0.211,1.0391 -0.586,1.4142c-0.375,0.3751 -0.884,0.5858 -1.414,0.5858c-4.774,0 -9.352,-1.8964 -12.728,-5.2721c-3.376,-3.3756 -5.272,-7.954 -5.272,-12.7279c0,-0.5304 0.211,-1.0391 0.586,-1.4142c0.375,-0.3751 0.884,-0.5858 1.414,-0.5858h3c0.53,0 1.039,0.2107 1.414,0.5858c0.375,0.3751 0.586,0.8838 0.586,1.4142v3c0,0.3105 -0.072,0.6167 -0.211,0.8944c-0.139,0.2777 -0.341,0.5193 -0.589,0.7056l-0.468,0.351c-0.184,0.1402 -0.313,0.3396 -0.366,0.5644c-0.053,0.2247 -0.027,0.461 0.074,0.6686c1.367,2.7759 3.614,5.0208 6.392,6.384z" stroke="white" stroke-width="2" stroke-linecap="round" stroke-linejoin="round" xmlns="http://www.w3.org/2000/svg"/></svg>